<?xml version="1.0" encoding="utf-8"?>
<!-- Generator: Adobe Illustrator 24.2.3, SVG Export Plug-In . SVG Version: 6.00 Build 0)  -->
<svg version="1.1" id="Layer_1" xmlns="http://www.w3.org/2000/svg" xmlns:xlink="http://www.w3.org/1999/xlink" x="0px" y="0px"
	 viewBox="0 0 512 512" style="enable-background:new 0 0 512 512;" xml:space="preserve">
<style type="text/css">
	.st0{fill:#FFCD6C;}
	.st1{fill:#181615;}
	.st2{fill:#FAA819;}
	.st3{fill:#D4AA6C;}
	.st4{opacity:0.15;}
	.st5{fill:#A45225;}
</style>
<g>
	<path class="st0" d="M438.94,327.55c14.76-6.58,31.1-17.73,39.72-27.13c5.99-6.52,16.35-24.43,14.37-38.23
		c-2.38-16.5-22.23-38.91-36.8-45.69c-12.04-5.59-32.23-7.63-50.22,0.39c-3.05,1.36-5.98,2.98-8.68,4.82
		c-17.11,11.62-27.89,30.24-31.91,42.64c-2.87,8.85-8.69,30.85-0.76,44c5.23,8.68,15.29,11.75,23.37,14.23
		c1.31,0.4,3.15,0.96,4.23,1.35c0.31,0.28,0.64,0.58,0.97,0.89c3.82,3.47,9.6,8.71,18.25,9.15
		C419.35,334.38,428.33,332.28,438.94,327.55C438.94,327.55,438.94,327.55,438.94,327.55z"/>
	<path class="st1" d="M347.92,259.85c5.17-15.92,18.2-38.02,39.28-52.34c3.67-2.49,7.61-4.68,11.73-6.52
		c20.69-9.22,46.55-9.38,65.88-0.4c19.26,8.96,43.04,35.13,46.4,58.39c2.89,20.18-10.13,43.05-19.02,52.73
		c-10.39,11.32-28.94,24.07-46.16,31.74c-13.48,6.01-25.37,8.65-36.34,8.1c-13.41-0.69-22.48-7.58-27.58-12.07
		c-0.13-0.04-0.25-0.07-0.37-0.11c-9.17-2.8-24.52-7.49-33.08-21.71C338.19,300.3,342.48,276.64,347.92,259.85z M380.64,299.03
		c3,4.98,16.62,6.81,21.78,9.73c2.91,1.65,7.44,7.47,10.87,7.64c5.03,0.25,11.65-1.68,18.56-4.76c12.94-5.77,26.9-15.55,33.3-22.51
		c4.43-4.82,10.6-17.57,9.71-23.76c-1.53-10.57-17.33-28.36-27.23-32.96c-8.31-3.86-22.51-4.97-34.53,0.38
		c-1.95,0.87-3.84,1.9-5.64,3.13c-12.91,8.77-21.45,23.38-24.56,32.96C380.55,276.18,376.79,292.64,380.64,299.03z"/>
	<path class="st0" d="M384.12,238.36c34.98-15.58,56.08-38.75,56.96-39.73c3.26-3.62,4.94-8.27,4.67-12.93
		c-0.27-4.65-2.46-8.93-6.1-11.89c-0.17-0.14-17.15-13.97-39.29-35.98c-6.2-6.16-25.05-24.91-53.33-12.31
		c-0.49,0.22-0.98,0.44-1.47,0.68c-21.34,10.25-28.06,32.75-17.12,57.32c6.82,15.32,15.23,34.2,19.12,48.69
		c1.24,4.64,4.46,8.49,8.88,10.65c4.42,2.16,9.66,2.42,14.47,0.74C375.33,242.06,379.78,240.3,384.12,238.36L384.12,238.36z"/>
	<path class="st1" d="M329.79,237.33c-3.55-13.25-12.02-32.25-18.2-46.13c-14.72-33.05-3.84-66.16,26.37-80.67
		c0.67-0.32,1.33-0.63,1.99-0.92c18.3-8.16,45.98-12.05,73.89,15.7c21.64,21.52,37.85,34.7,38.01,34.83
		c7.28,5.9,11.68,14.46,12.22,23.77c0.54,9.31-2.83,18.62-9.35,25.87c-2.49,2.76-25.44,27.51-63.52,44.48
		c-4.84,2.16-9.79,4.12-14.71,5.85c-9.63,3.37-20.11,2.83-28.95-1.48C338.71,254.32,332.28,246.62,329.79,237.33z M377.03,222.45
		c31.58-14.07,50.41-34.98,50.41-34.98s-17.46-14.15-40.56-37.12c-8.76-8.71-18.55-15.26-32.76-8.93c-0.32,0.14-0.64,0.29-0.97,0.45
		c-14.72,7.07-12.91,22.64-7.79,34.11c6.9,15.49,15.74,35.33,19.98,51.11C369.41,225.68,373.31,224.11,377.03,222.45z"/>
	<path class="st2" d="M384.12,238.36c34.98-15.58,56.08-38.75,56.96-39.73c3.26-3.62,4.94-8.27,4.67-12.92
		c-0.27-4.65-2.46-8.93-6.1-11.89c-0.07-0.05-7.13-5.81-17.95-15.66c-5.42-4.93-13.38-5.85-20.04-2.88
		c-2.02,0.9-3.92,2.16-5.59,3.76c-5.35,5.14-20.06,18.12-41.13,27.5c-1.29,0.58-2.61,1.14-3.95,1.69c-0.19,0.08-0.39,0.16-0.58,0.25
		c-9.05,4.03-13.55,14.09-10.08,22.82c3.36,8.46,5.72,15.31,7.23,20.93c1.24,4.64,4.46,8.49,8.88,10.65
		c4.42,2.16,9.66,2.42,14.47,0.74C375.33,242.06,379.78,240.3,384.12,238.36z"/>
	<path class="st1" d="M329.79,237.33c-1.34-5-3.51-11.26-6.63-19.13c-6.92-17.44,2.08-37.57,20.17-45.63
		c0.39-0.17,0.77-0.34,1.17-0.5c1.15-0.47,2.27-0.95,3.38-1.44c18.23-8.12,30.93-19.31,35.53-23.74c3.34-3.21,7.14-5.73,11.18-7.52
		c13.33-5.94,29.25-4.11,40.08,5.76c10.39,9.47,17.16,14.99,17.23,15.05c7.26,5.91,11.65,14.47,12.18,23.77
		c0.53,9.3-2.83,18.6-9.34,25.84c-2.49,2.76-25.44,27.51-63.52,44.48c-4.84,2.16-9.79,4.12-14.71,5.85
		c-9.63,3.37-20.11,2.83-28.95-1.48C338.7,254.32,332.28,246.62,329.79,237.33z M377.03,222.45c31.58-14.07,50.41-34.98,50.41-34.98
		s-7.3-5.93-18.68-16.29c-6.89,6.63-23.27,20.81-46.72,31.26c-1.48,0.66-2.99,1.3-4.53,1.93c3.13,7.88,5.94,15.7,7.83,22.72
		C369.41,225.68,373.31,224.11,377.03,222.45z"/>
	<path class="st3" d="M284.38,393.99c-75.66,0-133.92-8.43-136.36-8.79c-9.99-1.47-17.33-10.13-17.13-20.23
		c0.11-5.71,3.14-140.94,38.63-234.49c1.34-3.53,3.65-6.62,6.67-8.89c23.69-17.88,61.51-20.55,81.95-20.55
		c38.23,0,77.17,8.81,106.84,24.17c4.2,2.17,7.49,5.76,9.31,10.13c37.62,90.83,49.38,211.03,49.97,229.37
		c0.33,10.11-6.92,18.88-16.91,20.46C370.36,391.02,328.98,393.99,284.38,393.99z"/>
	<path class="st1" d="M392.8,127.68c-3.62-8.74-10.21-15.92-18.61-20.27C341.77,90.62,299.47,81,258.15,81v40.1l0-40.1h-0.01
		c-22.95,0-65.67,3.2-94.02,24.59c-6.03,4.55-10.66,10.72-13.34,17.79c-36.71,96.76-39.82,235.35-39.93,241.2
		c-0.4,20.19,14.28,37.52,34.26,40.45c2.5,0.37,62.16,9,139.27,9c45.65,0,88.08-3.05,126.1-9.06c19.98-3.16,34.47-20.7,33.81-40.91
		C443.67,345.16,431.56,221.26,392.8,127.68z M284.38,373.94c-75.07,0-133.44-8.58-133.44-8.58s2.67-136.39,37.33-227.77
		c14.22-10.73,40.39-16.5,69.87-16.5c32.35,0,68.69,6.95,97.62,21.92c36.32,87.68,47.91,205.36,48.46,222.35
		C363.58,371.8,321.89,373.94,284.38,373.94z"/>
	<path class="st4" d="M188.27,137.6c-34.67,91.38-37.33,227.77-37.33,227.77s33.36,4.9,82.04,7.29
		c-1.86-56.92-2.69-163.33,11.66-251.13C220.79,123.02,200.27,128.54,188.27,137.6z"/>
	<path class="st5" d="M346.32,410.95c-17.58,0-34.35-6.25-46.68-17.08c-4.95,0.07-9.85,0.1-14.7,0.1
		c-82.03,0-145.2-9.12-147.85-9.51c-10-1.47-17.34-10.14-17.14-20.24c0.01-0.45,0.23-11.21,1.26-28.74
		c0.33-5.54,2.93-10.7,7.2-14.25c3.62-3.01,8.16-4.63,12.81-4.63c0.84,0,1.67,0.05,2.51,0.16c45.57,5.76,92.31,8.68,138.93,8.68
		c1.12,0,2.24,0,3.36-0.01c10.32-19.88,32.19-34.05,57.41-35.68c1.65-0.11,3.29-0.16,4.92-0.16c23.79,0,45.18,11.25,56.98,28.74
		c1.7-0.21,3.32-0.42,4.88-0.62c0.87-0.11,1.73-0.17,2.59-0.17c4.46,0,8.82,1.49,12.37,4.28c4.24,3.32,6.96,8.21,7.55,13.56
		c1.34,12.05,2.29,23.01,2.47,28.61c0.33,10.11-6.92,18.87-16.91,20.45c-5.73,0.9-11.64,1.76-17.66,2.55
		c-11.85,13.83-29.64,22.54-49.39,23.81C349.58,410.9,347.94,410.95,346.32,410.95z"/>
	<path class="st1" d="M452.65,333.16c-1.19-10.7-6.63-20.48-15.1-27.12c-6.7-5.25-14.85-8.2-23.25-8.52
		c-16.07-17.32-39.93-27.98-65.95-27.98c-2.06,0-4.14,0.07-6.2,0.2c-28.13,1.82-52.54,15.34-67.37,35.61
		c-43.16-0.31-86.36-3.16-128.53-8.49c-1.68-0.21-3.36-0.32-5.03-0.32c-9.31,0-18.39,3.24-25.63,9.26
		c-8.54,7.1-13.75,17.41-14.4,28.5c-1.05,17.91-1.28,29.04-1.29,29.5c-0.41,20.2,14.28,37.56,34.27,40.49
		c2.71,0.4,67.28,9.72,150.76,9.72c2.61,0,5.23-0.01,7.84-0.03c15.1,10.86,33.97,17.01,53.54,17.01c2.06,0,4.14-0.07,6.2-0.2
		c22.31-1.44,42.74-10.43,57.78-24.9c3.76-0.53,7.47-1.08,11.11-1.66c19.97-3.16,34.47-20.69,33.81-40.9
		C455.03,357.16,454.07,345.88,452.65,333.16z M389.57,368.16c-7.49,12.48-22.18,21.51-39.63,22.63c-1.22,0.08-2.43,0.12-3.63,0.12
		c-15.86,0-29.96-6.75-38.38-17.23c-7.8,0.17-15.47,0.25-23,0.25c-81.52,0-144.94-9.3-144.94-9.3s0.22-10.62,1.23-27.98
		c51.96,6.56,99.91,8.83,141.44,8.83c5.99,0,11.85-0.05,17.57-0.14c3.13-18.86,21.43-34.1,44.49-35.59
		c1.22-0.08,2.43-0.12,3.63-0.12c21.72,0,40.17,12.62,45.19,30.22c7.26-0.77,13.71-1.54,19.26-2.26
		c1.49,13.38,2.22,22.93,2.35,27.04C406.66,365.98,398.11,367.14,389.57,368.16z"/>
	<path class="st5" d="M349.18,371.9c-13.76,0-24.96-9.7-24.96-21.63s11.2-21.62,24.96-21.62c13.76,0,24.96,9.7,24.96,21.62
		S362.95,371.9,349.18,371.9z"/>
	<path class="st1" d="M349.18,320.63c-18.18,0-32.98,13.3-32.98,29.64c0,16.35,14.79,29.65,32.98,29.65
		c18.18,0,32.98-13.3,32.98-29.65C382.16,333.92,367.37,320.63,349.18,320.63z M349.18,363.88c-9.35,0-16.94-6.09-16.94-13.61
		c0-7.51,7.58-13.6,16.94-13.6c9.35,0,16.94,6.09,16.94,13.6C366.12,357.79,358.54,363.88,349.18,363.88z"/>
	<path class="st4" d="M219.43,343.69c-24.75-1.37-50.89-3.59-78.21-7.04C140.21,354,140,364.62,140,364.62s31.87,4.67,79.44,7.39
		V343.69z"/>
	<path class="st0" d="M94.59,375.52c-17.25-2.88-37.36-10.37-48.89-18.22c-8.01-5.45-23.59-22.22-25.11-38.12
		c-1.8-19.03,13.23-49.84,26.79-61.72c11.21-9.81,31.93-18.12,52.95-14.6c3.57,0.6,7.07,1.52,10.4,2.75
		c21.05,7.78,37.25,25.21,44.73,37.78c5.34,8.97,17.2,31.64,12.3,48.61c-3.24,11.2-13.01,17.62-20.88,22.78
		c-1.27,0.84-3.07,2.01-4.09,2.77c-0.25,0.4-0.52,0.83-0.79,1.28c-3.11,4.99-7.82,12.54-16.82,15.62
		C116.99,377.23,106.99,377.59,94.59,375.52C94.59,375.52,94.59,375.52,94.59,375.52z"/>
	<path class="st1" d="M172.69,273.13c-9.6-16.12-29.08-36.75-55.01-46.33c-4.51-1.67-9.23-2.92-14.05-3.72
		c-24.18-4.04-51.43,3.53-69.44,19.27c-17.93,15.71-36.11,51.88-33.57,78.7c2.23,23.27,21.91,44.75,33.8,52.83
		c13.89,9.45,36.75,18.05,56.87,21.41c15.76,2.63,28.96,2.01,40.36-1.88c13.93-4.78,21.67-15.14,25.87-21.65
		c0.12-0.08,0.24-0.16,0.36-0.23c8.92-5.86,23.84-15.65,29.14-33.99C193.5,315.12,182.8,290.14,172.69,273.13z M148.49,326.41
		c-1.86,6.43-15.71,12.53-20.38,17.32c-2.63,2.7-5.88,10.52-9.44,11.74c-5.23,1.79-12.7,1.62-20.78,0.27
		c-15.13-2.53-32.38-9.21-40.92-15.02c-5.92-4.03-15.75-16.33-16.43-23.46c-1.16-12.19,10.83-36.66,20.05-44.73
		c7.74-6.77,22.38-12.26,36.44-9.91c2.27,0.38,4.54,0.96,6.75,1.78c15.88,5.87,28.68,19.53,34.45,29.23
		C142.62,301.02,150.88,318.17,148.49,326.41z"/>
	<path class="st0" d="M128.98,260.12c-40.88-6.83-69.15-26.22-70.33-27.04c-4.38-3.04-7.36-7.7-8.3-12.95
		c-0.93-5.25,0.26-10.65,3.32-15.02c0.14-0.2,14.4-20.64,31.95-51.69c4.91-8.69,19.86-35.15,52.9-29.63
		c0.57,0.09,1.15,0.2,1.73,0.31c25.14,4.99,38.09,27.95,33,58.49c-3.18,19.05-7.09,42.52-7.4,59.77c-0.1,5.53-2.47,10.76-6.56,14.48
		c-4.09,3.72-9.53,5.58-15.04,5.15C139.19,261.6,134.06,260.97,128.98,260.12L128.98,260.12z"/>
	<path class="st1" d="M185.89,242.72c0.28-15.77,4.22-39.39,7.1-56.64c6.85-41.09-13.25-74.58-48.83-81.64
		c-0.79-0.16-1.57-0.3-2.33-0.42c-21.39-3.57-51.54,0.39-73.66,39.54c-17.15,30.36-30.77,49.85-30.9,50.04
		c-6.12,8.73-8.52,19.54-6.65,30.04c1.87,10.5,7.84,19.82,16.6,25.91c3.34,2.32,33.96,22.92,78.47,30.35
		c5.65,0.94,11.38,1.65,17.01,2.09c11.02,0.86,21.9-2.87,30.08-10.31C180.94,264.24,185.69,253.76,185.89,242.72z M132.28,240.34
		c-36.91-6.16-62.19-23.73-62.19-23.73s14.67-20.92,32.98-53.33c6.94-12.28,15.53-22.49,32.15-19.71c0.37,0.06,0.75,0.13,1.13,0.21
		c17.34,3.44,19.5,21.26,17.12,35.53c-3.21,19.25-7.33,43.92-7.67,62.71C141.14,241.64,136.63,241.07,132.28,240.34z"/>
	<path class="st2" d="M128.98,260.12c-40.88-6.83-69.15-26.22-70.33-27.04c-4.38-3.04-7.36-7.7-8.29-12.94
		c-0.94-5.25,0.26-10.65,3.31-15.02c0.06-0.08,5.99-8.58,14.8-22.76c4.41-7.1,12.55-10.5,20.34-9.2c2.36,0.39,4.69,1.22,6.87,2.5
		c6.97,4.11,25.85,14.1,50.47,18.21c1.51,0.25,3.05,0.48,4.6,0.69c0.23,0.03,0.45,0.06,0.68,0.1c10.57,1.77,17.94,11.59,16.57,22.3
		c-1.32,10.4-2.02,18.71-2.14,25.39c-0.1,5.52-2.47,10.76-6.56,14.48c-4.09,3.72-9.53,5.58-15.04,5.15
		C139.19,261.6,134.06,260.97,128.98,260.12z"/>
	<path class="st1" d="M185.89,242.71c0.1-5.95,0.75-13.54,1.98-23.21c2.73-21.43-12-41.08-33.15-44.61c-0.45-0.08-0.9-0.14-1.36-0.2
		c-1.33-0.18-2.64-0.37-3.93-0.59c-21.31-3.56-37.59-12.17-43.6-15.71c-4.36-2.57-9.01-4.22-13.73-5
		c-15.58-2.6-31.85,4.2-40.67,18.39c-8.46,13.62-14.15,21.78-14.2,21.86c-6.1,8.73-8.48,19.54-6.6,30.03
		c1.87,10.48,7.84,19.8,16.58,25.88c3.34,2.32,33.96,22.92,78.47,30.35c5.65,0.94,11.38,1.65,17.01,2.09
		c11.02,0.86,21.9-2.87,30.08-10.31C180.95,264.24,185.69,253.76,185.89,242.71z M132.28,240.34
		c-36.91-6.16-62.19-23.73-62.19-23.73s6.14-8.76,15.4-23.67c8.98,5.29,29.93,16.13,57.34,20.71c1.73,0.29,3.48,0.55,5.27,0.79
		c-1.23,9.68-2.15,19.21-2.3,27.56C141.14,241.64,136.63,241.07,132.28,240.34z"/>
</g>
</svg>
