<?xml version="1.0" encoding="utf-8"?>
<!-- Generator: Adobe Illustrator 25.0.1, SVG Export Plug-In . SVG Version: 6.00 Build 0)  -->
<svg version="1.1" id="Layer_1" xmlns="http://www.w3.org/2000/svg" xmlns:xlink="http://www.w3.org/1999/xlink" x="0px" y="0px"
	 viewBox="0 0 512 512" style="enable-background:new 0 0 512 512;" xml:space="preserve">
<style type="text/css">
	.st0{fill:#403C38;}
	.st1{fill:#181615;}
</style>
<path class="st0" d="M377.66,335c-14.86,0-26.73-2.37-28.03-2.64c-8.22-1.7-14.18-7.69-14.69-14.77
	c-0.81-11.18-4.51-67.93,1.81-86.82c4.86-14.55,20.92-23.95,40.92-23.95c19.52,0,36.72,8.83,42.8,21.97
	c8.25,17.82,4.33,49.66-1.65,89.42c-0.94,6.23-6.08,11.45-13.21,13.4C397.35,333.86,387.95,335,377.66,335z"/>
<path class="st1" d="M438.52,222.92c-8.95-19.34-33.4-32.33-60.85-32.33h0c-28.92,0-52.3,14.06-59.57,35.81
	c-6.78,20.29-4,71.22-2.48,92.17c1.02,14.17,12.92,26.15,29.37,29.55c2.51,0.52,15.88,3.11,32.67,3.11c12.33,0,23.75-1.41,33.95-4.2
	c14.25-3.9,24.54-14.33,26.41-26.8C444.57,276.76,448.43,244.33,438.52,222.92z M399.61,316.17c-7.19,1.97-14.93,2.6-21.95,2.6
	c-12.93,0-23.39-2.16-23.39-2.16s-4.63-64.24,1.12-81.47c2.79-8.35,12.39-12.1,22.28-12.1c10.49,0,21.33,4.21,24.75,11.61
	C409.08,249.03,404.79,281.75,399.61,316.17z"/>
<path class="st0" d="M129.86,335c-14.86,0-26.73-2.37-28.04-2.64c-8.23-1.7-14.18-7.69-14.69-14.77
	c-0.81-11.18-4.51-67.93,1.81-86.82c4.86-14.55,20.92-23.95,40.92-23.95c19.52,0,36.72,8.83,42.8,21.97
	c8.25,17.82,4.33,49.66-1.65,89.42c-0.94,6.23-6.08,11.45-13.21,13.4C149.55,333.86,140.15,335,129.86,335z"/>
<path class="st1" d="M190.72,222.92c-8.95-19.34-33.4-32.33-60.85-32.33h0c-28.92,0-52.3,14.06-59.57,35.81
	c-6.78,20.29-4,71.22-2.49,92.17c1.02,14.18,12.92,26.15,29.37,29.55c2.51,0.52,15.89,3.11,32.67,3.11c12.33,0,23.75-1.41,33.95-4.2
	c14.25-3.9,24.54-14.33,26.41-26.8C196.77,276.76,200.63,244.33,190.72,222.92z M151.81,316.17c-7.19,1.97-14.93,2.6-21.95,2.6
	c-12.93,0-23.4-2.16-23.4-2.16s-4.63-64.24,1.13-81.47c2.79-8.35,12.39-12.1,22.28-12.1c10.49,0,21.32,4.21,24.75,11.61
	C161.28,249.03,156.99,281.75,151.81,316.17z"/>
</svg>
