<?xml version="1.0" encoding="utf-8"?>
<!-- Generator: Adobe Illustrator 24.2.3, SVG Export Plug-In . SVG Version: 6.00 Build 0)  -->
<svg version="1.1" id="Layer_1" xmlns="http://www.w3.org/2000/svg" xmlns:xlink="http://www.w3.org/1999/xlink" x="0px" y="0px"
	 viewBox="0 0 512 512" style="enable-background:new 0 0 512 512;" xml:space="preserve">
<style type="text/css">
	.st0{fill:#EFC675;}
	.st1{fill:#181615;}
	.st2{fill:#69421C;}
	.st3{fill:#DDD6CF;}
	.st4{opacity:0.25;}
	.st5{opacity:0.5;fill:#FFFFFF;}
	.st6{fill:#F9F2E8;}
	.st7{fill:#231F15;}
</style>
<path class="st0" d="M245.59,493.53c-132.33-0.01-208.22-65.16-208.22-178.74c0-104.82,85.98-183.87,200.01-183.87
	c53.26,0,102.55,18.22,138.79,51.29c36.48,33.29,58.08,80.14,60.83,131.91c3.14,59.11-8.21,101.96-34.69,130.98
	c-27.91,30.59-71.04,45.43-139.84,48.09c-5.7,0.22-11.37,0.33-16.86,0.33C245.6,493.53,245.59,493.53,245.59,493.53z"/>
<path class="st1" d="M449.55,313.46c-2.92-55.09-25.97-104.99-64.9-140.53c-38.56-35.19-90.86-54.57-147.26-54.57
	c-56.94,0-109.94,19.29-149.23,54.33c-40.85,36.43-63.34,86.89-63.34,142.1c0,57.04,18.94,104.69,54.78,137.81
	c38.41,35.49,94.26,53.49,166,53.49c5.67,0,11.51-0.12,17.36-0.34c48.77-1.89,109.73-9.53,148.64-52.18
	C440.45,421.94,452.87,376.11,449.55,313.46z M261.98,480.65c-5.59,0.22-11.04,0.32-16.39,0.32
	c-136.31,0-195.66-69.46-195.66-166.18c0-100.52,84.02-171.31,187.45-171.31c103.42,0,181.75,70.92,187.08,171.31
	C431.34,444.61,365.32,476.64,261.98,480.65z"/>
<path class="st2" d="M218.85,316.98c-70.91,0-134.11-1.6-187.83-4.77c-3.38-0.2-6.53-1.75-8.75-4.31c-2.22-2.56-3.31-5.9-3.03-9.27
	c0.36-4.33,1.45-17.5,5.54-30.72c1.63-5.27,6.5-8.85,12-8.85c0.1,0,0.21,0,0.31,0c58,1.42,122.29,2.14,191.07,2.14
	c117.12,0,207.83-2.11,208.74-2.14c0.1,0,0.2,0,0.3,0c6.01,0,11.2,4.27,12.34,10.2l5.36,28.05c0.68,3.58-0.22,7.28-2.48,10.14
	c-2.25,2.86-5.64,4.6-9.28,4.77C442.12,312.26,339.45,316.98,218.85,316.98z"/>
<path class="st1" d="M467.23,294.95l-5.36-28.05c-2.27-11.87-12.65-20.41-24.67-20.41c-0.2,0-0.4,0-0.6,0.01
	c-0.9,0.02-91.49,2.13-208.44,2.13c-68.68,0-132.86-0.72-190.76-2.13c-0.21,0-0.41-0.01-0.62-0.01c-10.99,0-20.74,7.16-24,17.71
	c-4.49,14.53-5.67,28.72-6.06,33.39c-0.56,6.74,1.62,13.43,6.06,18.54c4.43,5.11,10.75,8.22,17.5,8.62
	c53.96,3.18,117.4,4.79,188.56,4.79c120.89,0,223.85-4.73,224.87-4.77c7.28-0.34,14.05-3.82,18.56-9.54
	C466.79,309.5,468.6,302.11,467.23,294.95z M218.85,304.41c-60.86,0-126.64-1.19-187.09-4.75c0.42-5.03,1.46-16.53,5.02-28.05
	c65.67,1.6,132.06,2.14,191.37,2.14c118.64,0,209.03-2.14,209.03-2.14l5.36,28.05C442.56,299.66,340.56,304.41,218.85,304.41z"/>
<path class="st3" d="M160.3,499.41c-1.28,0-2.57-0.2-3.84-0.6c-5.07-1.64-124.42-41.31-140.47-148.28
	C-1.43,234.37,50.65,159.78,71.59,145.74c19.63-13.15,42.36-15.11,54.17-15.11c0.11,0,0.21,0,0.31,0
	c12.5-17.28,52.84-60.47,146.6-65.86c3.11-0.18,6.28-0.27,9.44-0.27c67.77,0,137.73,40.7,182.55,106.22
	c20.17,29.48,32.29,79.38,33.25,136.9c0.92,55.21-8.82,109.24-26.05,144.54c-2.14,4.38-6.56,7.05-11.28,7.05
	c-0.87,0-1.75-0.09-2.63-0.28c-5.64-1.2-9.74-6.09-9.93-11.86c-3.23-95.03-38.08-148.54-66.75-176.71
	c-32.22-31.65-67.89-43.14-84-43.14c-18.03,0-57.93,19.49-78.85,31.77c-1.95,1.15-4.15,1.73-6.36,1.73c-1.37,0-2.75-0.22-4.07-0.68
	c-0.19-0.06-20.01-6.75-36.76-6.75c-2.51,0-4.82,0.16-6.85,0.47c-25.4,59.07-32.69,116.24-21.08,165.66
	c9.02,38.37,26.38,59.02,26.56,59.22c3.65,4.27,4.04,10.47,0.92,15.15C168.38,497.36,164.42,499.41,160.3,499.41z"/>
<path class="st1" d="M510.46,307.41c-1-59.91-13.91-112.32-35.44-143.79c-24.18-35.34-55.41-64.28-90.32-83.7
	c-32.9-18.31-68.38-27.98-102.6-27.98c-3.39,0-6.81,0.1-10.16,0.29c-62.58,3.6-102.38,23.87-124.74,40.25
	c-12.64,9.26-21.53,18.51-27.4,25.73c-14.08,0.68-35.82,4.11-55.21,17.1C47.83,146.54,29.15,174.89,17,207.55
	C5.57,238.26-6.04,288.31,3.57,352.39c17.19,114.58,143.66,156.64,149.04,158.37c2.59,0.83,5.25,1.24,7.87,1.24
	c8.34,0,16.38-4.07,21.08-11.33c6.16-9.51,5.34-21.79-2.2-30.22c-1.14-1.41-16.34-20.66-24.19-55.39
	c-10.2-45.12-4.24-95.25,17.73-149.18c11.83,0.37,26.27,4.45,31.04,6.06c2.63,0.89,5.37,1.33,8.1,1.33c4.43,0,8.83-1.16,12.73-3.45
	c24.65-14.45,59.38-30.04,72.49-30.04c21.57,0,132.36,36.11,138.2,207.71c0.39,11.53,8.59,21.31,19.87,23.72
	c1.75,0.37,3.51,0.55,5.25,0.55c9.45,0,18.3-5.35,22.57-14.11C501.46,420.13,511.42,365.36,510.46,307.41z M460.56,446.65
	c-6.28-184.67-127.3-231.98-163.31-231.98c-28.16,0-85.21,33.5-85.21,33.5s-21.68-7.43-40.84-7.43c-5.74,0-11.27,0.67-15.9,2.41
	c-70.35,157.03,5.02,243.71,5.02,243.71S43.49,449.16,28.42,348.66c-16.28-108.53,31.9-180.25,50.16-192.48
	c16.89-11.32,36.86-12.99,47.17-12.99c4.31,0,6.93,0.29,6.93,0.29s31.41-59.89,140.7-66.17c2.88-0.17,5.78-0.25,8.72-0.25
	c58.08,0,125.54,32.58,172.18,100.75C494.38,236.43,494.9,376.3,460.56,446.65z"/>
<path class="st4" d="M28.42,348.66c15.07,100.5,131.9,138.19,131.9,138.19s-75.37-86.68-5.02-243.71c0,0-44.81-67-76.72-86.96
	C60.32,168.42,12.14,240.13,28.42,348.66z"/>
<path class="st4" d="M305.62,179.49c-68.19,19.26-93.59,68.67-93.59,68.67s57.06-33.5,85.21-33.5
	c36.01,0,157.03,47.32,163.31,231.98C460.56,446.65,498.25,224.71,305.62,179.49z"/>
<path class="st5" d="M359.22,114.17c91.36,41.67,125.58,196.28,126.14,198.84c-0.23-52.89-10.36-104.9-31.08-135.19
	c-48.99-71.61-120.96-103.94-180.9-100.5c-30.08,1.73-54.23,7.53-73.48,15.01C202.74,91.52,269.51,73.25,359.22,114.17z"/>
<path class="st6" d="M347.54,357.04c0,20.98,9.28,38.98,22.5,46.67c9.59,0.94,23.35,0.01,33.89-3.73
	c10.39-8.96,17.29-24.84,17.29-42.93c0-15.55-5.1-29.46-13.12-38.75c-13.95-4.25-37.54-1.92-51.21,5.03
	C351.07,332.28,347.54,344.09,347.54,357.04z"/>
<path class="st1" d="M377.48,416.61L377.48,416.61c-3.04,0-5.96-0.13-8.67-0.4c-1.8-0.18-3.53-0.74-5.09-1.64
	c-17.46-10.16-28.75-32.74-28.75-57.53c0-14.86,4.04-29.26,11.37-40.56c1.2-1.85,2.87-3.35,4.84-4.35
	c10.49-5.34,25.48-8.53,40.09-8.53c7.76,0,14.65,0.9,20.48,2.68c2.27,0.69,4.29,2.01,5.84,3.8c10.28,11.9,16.18,29.02,16.18,46.97
	c0,21.14-8.09,40.75-21.65,52.44c-1.18,1.02-2.53,1.8-4,2.32C396.39,415.99,383.89,416.61,377.48,416.61z M374.2,391.41
	c1.06,0.05,2.15,0.07,3.29,0.07h0c7.02,0,14.27-0.96,19.92-2.6c6.99-7.15,11.26-19.1,11.26-31.84c0-10.49-2.8-20.31-7.78-27.56
	c-2.8-0.49-6.1-0.76-9.6-0.76c-9.07,0-18.69,1.69-25.6,4.42c-3.61,6.81-5.57,15.16-5.57,23.9C360.1,371.61,365.68,385,374.2,391.41z
	"/>
<path class="st6" d="M164.56,355.08c0,17.68,7.68,33.55,19.87,44.41c10.38,9.25,36.29,11.57,64.6,8.94
	c14.29-2.1,33.2-26.02,33.2-53.34c0-15.06-5.58-28.81-14.77-39.27c-20.51-8.96-56.19-12.07-76.96-9.87
	C174.85,316.59,164.56,334.62,164.56,355.08z"/>
<path class="st1" d="M228.23,421.99C228.23,421.99,228.23,421.99,228.23,421.99c-24.83,0-42.38-4.42-52.16-13.13
	c-15.3-13.64-24.08-33.24-24.08-53.79c0-23.88,11.75-46.13,31.44-59.52c1.71-1.16,3.68-1.89,5.74-2.11
	c4.69-0.5,9.98-0.75,15.72-0.75c18.92,0,47.98,3.04,67.59,11.6c1.69,0.74,3.19,1.84,4.41,3.22c11.54,13.13,17.9,30.02,17.9,47.56
	c0,33.96-23.2,62.73-43.94,65.77c-0.22,0.03-0.44,0.06-0.66,0.08C242.57,421.63,235.18,421.99,228.23,421.99z M195.07,318.15
	c-11.3,8.83-17.95,22.41-17.95,36.93c0,13.39,5.71,26.15,15.67,35.03c3.67,3.27,14.91,6.77,35.44,6.77c0,0,0,0,0,0
	c6.05,0,12.5-0.31,19.2-0.92c6.61-1.31,22.23-18.5,22.23-40.87c0-10.49-3.49-20.63-9.87-28.83c-13.34-5.08-34.88-8.43-54.9-8.43
	C201.36,317.82,198.07,317.93,195.07,318.15z"/>
<path class="st7" d="M380.08,362.04c0,11.22,4.86,18.38,12.54,18.38c7.67,0,13.9-9.1,13.9-20.32c0-11.22-6.22-20.31-13.9-20.31
	C384.94,339.79,380.08,350.82,380.08,362.04z"/>
<path class="st7" d="M224.11,358.77c-0.91,15.5,9.44,24.65,21.07,24.65s21.07-11.04,21.07-24.65c0-13.61-12.25-24.4-23.89-24.4
	C230.73,334.37,224.91,345.18,224.11,358.77z"/>
<path class="st4" d="M365.68,333.14c6.91-2.72,16.54-4.42,25.61-4.42c3.5,0,6.79,0.26,9.6,0.76c4.91,7.16,7.7,16.84,7.77,27.19
	c-19.3,0.39-35.62,1.39-48.49,2.5c-0.03-0.7-0.05-1.41-0.05-2.12C360.1,348.3,362.06,339.95,365.68,333.14z"/>
<path class="st4" d="M195.07,318.15c3-0.22,6.29-0.32,9.82-0.32c20.03,0,41.56,3.34,54.9,8.43c6.38,8.19,9.87,18.33,9.87,28.82
	c0,1.53-0.09,3.03-0.22,4.5c-30.92-9.18-68.09-10.02-92.25-6.92C177.88,339.06,184.41,326.48,195.07,318.15z"/>
</svg>
